<svg xmlns="http://www.w3.org/2000/svg" width="693" height="272" viewBox="0 0 693 272" version="1.1"><path d="M 570.811 1.472 C 570.640 1.616, 565.775 2.021, 560 2.371 C 549.597 3.002, 538.752 4.212, 532 5.495 C 522.696 7.263, 513.159 9.012, 510 9.530 C 496.915 11.673, 464.667 19.357, 432.500 27.995 C 430.850 28.438, 425 29.992, 419.500 31.447 C 414 32.903, 406.478 34.987, 402.785 36.079 C 396.070 38.064, 396.070 38.064, 390.285 35.155 C 355.757 17.791, 297.999 2.512, 284.766 7.240 C 282.420 8.079, 277.125 9.750, 273 10.955 C 268.875 12.159, 263.881 13.756, 261.901 14.504 C 256.642 16.490, 238.663 22.350, 230 24.902 C 223.604 26.785, 192.743 36.476, 185 39.032 C 183.625 39.485, 178.675 41.015, 174 42.430 C 154.559 48.314, 148.319 50.271, 145 51.522 C 143.075 52.248, 136.550 54.426, 130.500 56.363 C 117.422 60.548, 117.116 60.653, 100.500 66.566 C 73.897 76.034, 65.065 79.416, 35.500 91.458 C -0.015 105.924, -0.302 106.153, 8.643 112.888 C 21.483 122.556, 58.947 159.262, 58.990 162.217 C 58.995 162.611, 60.575 164.508, 62.500 166.433 C 64.425 168.358, 66 170.320, 66 170.793 C 66 171.265, 68.929 174.768, 72.510 178.576 C 76.090 182.384, 80.868 188.313, 83.127 191.750 C 85.387 195.188, 87.643 198, 88.142 198 C 88.641 198, 89.460 199.078, 89.961 200.396 C 90.462 201.715, 92.588 204.720, 94.686 207.075 C 105.062 218.725, 106.737 220.719, 108.481 223.500 C 110.620 226.911, 122.607 242.412, 127.944 248.668 C 131.834 253.229, 136.721 259.662, 138.040 261.960 C 138.770 263.232, 139.499 263.210, 143.689 261.789 C 148.931 260.011, 200.341 239.326, 206.007 236.715 C 207.928 235.829, 224.350 228.374, 242.500 220.148 C 271.117 207.177, 283.332 201.457, 315.657 185.889 C 321.814 182.924, 321.814 182.924, 327.157 185.827 C 330.096 187.423, 335.200 190.196, 338.500 191.987 C 341.800 193.779, 347.875 197.140, 352 199.456 C 356.125 201.771, 367.825 207.745, 378 212.731 C 435.002 240.660, 433.294 240.279, 455.552 230.030 C 478.497 219.464, 506.356 209.230, 518.500 206.905 C 545.489 201.739, 554.591 201.224, 578.211 203.527 C 600.824 205.732, 622.774 217.846, 645.321 240.565 C 662.391 257.766, 659.662 259.701, 669.380 223.500 C 678.267 190.394, 682.284 172.256, 685.548 150.500 C 687.856 135.118, 687.828 135.340, 688.523 127 C 688.867 122.875, 689.526 116.575, 689.988 113 C 692.597 92.798, 690.622 60.997, 685.550 41.554 C 682.712 30.678, 681.960 29.454, 676.313 26.518 C 674.216 25.428, 669.410 22.584, 665.634 20.200 C 659.570 16.371, 645.966 10.527, 640.586 9.439 C 639.533 9.226, 636.608 8.394, 634.086 7.590 C 620.024 3.110, 574.140 -1.327, 570.811 1.472 M 562.500 47.657 C 560.300 47.834, 554.732 48.253, 550.128 48.589 C 541.756 49.200, 541.756 49.200, 542.355 53.350 C 542.685 55.632, 544.065 65.150, 545.423 74.500 C 548.690 97.003, 551.805 131.206, 552.628 153.618 C 553.271 171.105, 562.613 179.349, 581.406 179.016 C 581.939 179.007, 582.063 167.972, 581.708 152.185 C 581.105 125.371, 581.105 125.371, 593.803 127.579 C 609.294 130.274, 607.628 132.146, 606.798 112.977 C 605.961 93.662, 607.789 95.950, 592.341 94.874 C 577.371 93.832, 578.424 94.565, 577.568 84.601 C 576.869 76.465, 583.465 75.255, 610.250 78.605 C 615.913 79.313, 615.651 80.799, 613.309 61.250 C 611.570 46.736, 602.896 44.416, 562.500 47.657 M 625.372 52.747 C 629.610 90.093, 631.124 142.054, 629.095 180.500 C 627.964 201.941, 627.984 202.538, 629.909 204 C 630.995 204.825, 634.947 207.737, 638.692 210.472 C 642.436 213.206, 647.297 217.016, 649.492 218.938 C 653.485 222.433, 653.485 222.433, 654.216 217.466 C 659.219 183.460, 661.298 88.715, 657.562 64.987 C 657.346 63.619, 656.871 59.462, 656.506 55.750 C 655.910 49.705, 655.614 48.997, 653.670 48.975 C 648.031 48.910, 630.184 47.871, 627.610 47.458 C 624.720 46.994, 624.720 46.994, 625.372 52.747 M 510.956 51.331 C 510.705 51.557, 507.160 52.027, 503.079 52.375 C 493.793 53.169, 494.404 51.807, 496.871 66.202 C 501.643 94.045, 505.853 128.886, 507.580 154.812 C 508.403 167.170, 508.680 167.526, 518.186 168.406 C 522.209 168.778, 528.297 169.350, 531.716 169.676 C 538.855 170.357, 538.771 171.464, 534.931 127 C 532.744 101.685, 532.896 103.084, 530.039 82 C 525.667 49.731, 526.351 51.541, 518.392 51.210 C 514.554 51.051, 511.207 51.105, 510.956 51.331 M 427.265 58.542 C 396.954 66.705, 385.639 102.773, 402.697 136.852 C 426.867 185.138, 499.461 169.550, 490.494 118 C 490.350 117.175, 489.923 113.575, 489.545 110 C 488.363 98.840, 489.621 99.677, 475.146 100.425 C 444.754 101.996, 438.792 102.730, 439.397 104.827 C 439.663 105.747, 440.419 110.934, 441.077 116.352 C 442.273 126.205, 442.273 126.205, 454.234 125.486 C 466.131 124.771, 466.189 124.778, 465.084 126.843 C 459.126 137.975, 436.325 137.260, 430.372 125.754 C 418.462 102.734, 433.260 78.186, 451.561 90.606 C 457.229 94.452, 486.642 92.693, 485.607 88.570 C 479.884 65.768, 452.592 51.721, 427.265 58.542 M 325 68.091 C 268.582 79.028, 284.281 173.798, 342.540 173.976 C 365.367 174.045, 389.046 155.812, 388.130 138.871 C 387.833 133.380, 384.232 109.899, 383.588 109.255 C 383.050 108.717, 336.119 113.548, 335.458 114.209 C 335.029 114.637, 338.782 136.116, 339.392 136.725 C 339.657 136.991, 344.656 136.664, 350.500 136 C 363.064 134.572, 363.790 134.940, 358.371 139.995 C 343.089 154.249, 323.731 143.258, 322.247 119.485 C 321.159 102.043, 335.249 92.414, 348.032 101.865 C 350.818 103.925, 351.085 103.937, 362.685 102.490 C 369.183 101.679, 376.218 101.012, 378.317 101.008 C 381.818 101.001, 382.076 100.813, 381.428 98.750 C 374.247 75.891, 350.716 63.106, 325 68.091 M 254 74.076 C 246.616 74.774, 237.283 75.746, 236.122 75.938 C 235.488 76.042, 236.914 83.871, 239.959 97 C 252.095 149.327, 252.143 152.431, 240.847 154.898 C 228.768 157.536, 225.872 153.358, 218.438 122.577 C 207.655 77.921, 207.825 78.477, 205 78.673 C 171.720 80.981, 171.430 81.061, 173.938 87.203 C 174.454 88.466, 175.804 92.763, 176.938 96.750 C 178.072 100.737, 179.875 107.037, 180.945 110.750 C 182.014 114.463, 184.301 122.675, 186.026 129 C 197.827 172.260, 210.297 186.100, 237.475 186.100 C 271.936 186.100, 286.461 164.308, 277.868 125.500 C 275.848 116.378, 273.634 104.197, 272.504 96 C 272.163 93.525, 271.495 89.925, 271.019 88 C 270.542 86.075, 269.637 81.912, 269.006 78.750 C 267.701 72.211, 269.104 72.648, 254 74.076 M 99.831 87.042 C 63.261 93.065, 54.110 115.403, 77.931 140.500 C 85.959 148.958, 98.679 153.923, 125.356 159.013 C 142.627 162.308, 149.836 167.383, 144.023 172.155 C 140.396 175.133, 135.370 174.081, 131.360 169.505 C 128.220 165.921, 128.220 165.921, 110.107 168.297 C 89.054 171.059, 89.949 170.626, 93.814 176.180 C 123.401 218.695, 199.503 198.920, 177.916 154.327 C 173.118 144.414, 162.839 138.458, 141.858 133.431 C 117.420 127.576, 110.959 124.726, 111.015 119.827 C 111.086 113.715, 123.568 114.913, 125.571 121.224 C 126.215 123.254, 133.211 123.379, 144 121.554 C 145.375 121.321, 150.758 120.630, 155.963 120.019 C 167.477 118.666, 166.851 119.376, 162.969 112.093 C 152.613 92.664, 127.118 82.548, 99.831 87.042" stroke="none" fill="#e9c46a" fill-rule="evenodd"/><path d="M 562.500 47.657 C 560.300 47.834, 554.732 48.253, 550.128 48.589 C 541.756 49.200, 541.756 49.200, 542.355 53.350 C 542.685 55.632, 544.065 65.150, 545.423 74.500 C 548.690 97.003, 551.805 131.206, 552.628 153.618 C 553.271 171.105, 562.613 179.349, 581.406 179.016 C 581.939 179.007, 582.063 167.972, 581.708 152.185 C 581.105 125.371, 581.105 125.371, 593.803 127.579 C 609.294 130.274, 607.628 132.146, 606.798 112.977 C 605.961 93.662, 607.789 95.950, 592.341 94.874 C 577.371 93.832, 578.424 94.565, 577.568 84.601 C 576.869 76.465, 583.465 75.255, 610.250 78.605 C 615.913 79.313, 615.651 80.799, 613.309 61.250 C 611.570 46.736, 602.896 44.416, 562.500 47.657 M 625.372 52.747 C 629.610 90.093, 631.124 142.054, 629.095 180.500 C 627.964 201.941, 627.984 202.538, 629.909 204 C 630.995 204.825, 634.947 207.737, 638.692 210.472 C 642.436 213.206, 647.297 217.016, 649.492 218.938 C 653.485 222.433, 653.485 222.433, 654.216 217.466 C 659.219 183.460, 661.298 88.715, 657.562 64.987 C 657.346 63.619, 656.871 59.462, 656.506 55.750 C 655.910 49.705, 655.614 48.997, 653.670 48.975 C 648.031 48.910, 630.184 47.871, 627.610 47.458 C 624.720 46.994, 624.720 46.994, 625.372 52.747 M 510.956 51.331 C 510.705 51.557, 507.160 52.027, 503.079 52.375 C 493.793 53.169, 494.404 51.807, 496.871 66.202 C 501.643 94.045, 505.853 128.886, 507.580 154.812 C 508.403 167.170, 508.680 167.526, 518.186 168.406 C 522.209 168.778, 528.297 169.350, 531.716 169.676 C 538.855 170.357, 538.771 171.464, 534.931 127 C 532.744 101.685, 532.896 103.084, 530.039 82 C 525.667 49.731, 526.351 51.541, 518.392 51.210 C 514.554 51.051, 511.207 51.105, 510.956 51.331 M 427.265 58.542 C 396.954 66.705, 385.639 102.773, 402.697 136.852 C 426.867 185.138, 499.461 169.550, 490.494 118 C 490.350 117.175, 489.923 113.575, 489.545 110 C 488.363 98.840, 489.621 99.677, 475.146 100.425 C 444.754 101.996, 438.792 102.730, 439.397 104.827 C 439.663 105.747, 440.419 110.934, 441.077 116.352 C 442.273 126.205, 442.273 126.205, 454.234 125.486 C 466.131 124.771, 466.189 124.778, 465.084 126.843 C 459.126 137.975, 436.325 137.260, 430.372 125.754 C 418.462 102.734, 433.260 78.186, 451.561 90.606 C 457.229 94.452, 486.642 92.693, 485.607 88.570 C 479.884 65.768, 452.592 51.721, 427.265 58.542 M 325 68.091 C 268.582 79.028, 284.281 173.798, 342.540 173.976 C 365.367 174.045, 389.046 155.812, 388.130 138.871 C 387.833 133.380, 384.232 109.899, 383.588 109.255 C 383.050 108.717, 336.119 113.548, 335.458 114.209 C 335.029 114.637, 338.782 136.116, 339.392 136.725 C 339.657 136.991, 344.656 136.664, 350.500 136 C 363.064 134.572, 363.790 134.940, 358.371 139.995 C 343.089 154.249, 323.731 143.258, 322.247 119.485 C 321.159 102.043, 335.249 92.414, 348.032 101.865 C 350.818 103.925, 351.085 103.937, 362.685 102.490 C 369.183 101.679, 376.218 101.012, 378.317 101.008 C 381.818 101.001, 382.076 100.813, 381.428 98.750 C 374.247 75.891, 350.716 63.106, 325 68.091 M 254 74.076 C 246.616 74.774, 237.283 75.746, 236.122 75.938 C 235.488 76.042, 236.914 83.871, 239.959 97 C 252.095 149.327, 252.143 152.431, 240.847 154.898 C 228.768 157.536, 225.872 153.358, 218.438 122.577 C 207.655 77.921, 207.825 78.477, 205 78.673 C 171.720 80.981, 171.430 81.061, 173.938 87.203 C 174.454 88.466, 175.804 92.763, 176.938 96.750 C 178.072 100.737, 179.875 107.037, 180.945 110.750 C 182.014 114.463, 184.301 122.675, 186.026 129 C 197.827 172.260, 210.297 186.100, 237.475 186.100 C 271.936 186.100, 286.461 164.308, 277.868 125.500 C 275.848 116.378, 273.634 104.197, 272.504 96 C 272.163 93.525, 271.495 89.925, 271.019 88 C 270.542 86.075, 269.637 81.912, 269.006 78.750 C 267.701 72.211, 269.104 72.648, 254 74.076 M 99.831 87.042 C 63.261 93.065, 54.110 115.403, 77.931 140.500 C 85.959 148.958, 98.679 153.923, 125.356 159.013 C 142.627 162.308, 149.836 167.383, 144.023 172.155 C 140.396 175.133, 135.370 174.081, 131.360 169.505 C 128.220 165.921, 128.220 165.921, 110.107 168.297 C 89.054 171.059, 89.949 170.626, 93.814 176.180 C 123.401 218.695, 199.503 198.920, 177.916 154.327 C 173.118 144.414, 162.839 138.458, 141.858 133.431 C 117.420 127.576, 110.959 124.726, 111.015 119.827 C 111.086 113.715, 123.568 114.913, 125.571 121.224 C 126.215 123.254, 133.211 123.379, 144 121.554 C 145.375 121.321, 150.758 120.630, 155.963 120.019 C 167.477 118.666, 166.851 119.376, 162.969 112.093 C 152.613 92.664, 127.118 82.548, 99.831 87.042" stroke="none" fill="#27263c" fill-rule="evenodd"/></svg>